 <svg  version="1.0" xmlns="http://www.w3.org/2000/svg"  width="900.000000pt" height="843.000000pt" viewBox="0 0 900.000000 843.000000"  preserveAspectRatio="xMidYMid meet">  <g transform="translate(0.000000,843.000000) scale(0.100000,-0.100000)" fill="#020327" stroke="none"> <path d="M7350 8169 c-19 -4 -61 -12 -94 -18 -32 -6 -63 -14 -70 -19 -6 -5 -28 -12 -48 -16 -21 -4 -38 -11 -38 -16 0 -6 -7 -10 -15 -10 -17 0 -95 -39 -113 -57 -7 -7 -18 -13 -23 -13 -6 0 -16 -6 -24 -12 -7 -7 -28 -24 -47 -38 -35 -25 -159 -148 -193 -190 -11 -14 -31 -43 -45 -65 -13 -22 -27 -42 -31 -45 -4 -3 -13 -17 -18 -30 -6 -14 -15 -32 -20 -40 -27 -48 -41 -80 -41 -97 0 -10 -7 -27 -15 -37 -8 -11 -15 -34 -15 -51 0 -17 -5 -36 -11 -42 -15 -15 -33 -174 -33 -283 1 -110 18 -258 33 -273 6 -6 11 -22 11 -36 0 -15 7 -39 15 -55 8 -15 15 -34 15 -41 0 -24 70 -152 138 -252 62 -92 203 -222 292 -272 84 -46 156 -81 170 -81 8 0 24 -7 34 -15 11 -8 34 -15 51 -15 17 0 37 -6 44 -12 9 -10 67 -13 221 -13 154 0 212 3 221 13 7 6 25 12 41 12 15 0 44 7 65 16 94 40 109 47 123 55 8 5 26 14 40 20 13 5 27 13 30 17 3 4 30 24 60 44 69 47 206 188 257 265 54 81 133 246 133 276 0 8 7 28 15 43 8 16 15 45 15 64 0 19 7 53 15 75 17 48 20 260 4 320 -6 22 -14 66 -18 97 -4 32 -12 63 -19 70 -7 7 -12 23 -12 36 0 13 -7 36 -15 50 -8 15 -25 52 -39 82 -31 67 -72 141 -83 149 -5 3 -20 24 -35 46 -35 52 -151 166 -203 201 -22 15 -42 30 -45 35 -3 4 -17 13 -30 18 -14 6 -43 22 -65 36 -22 13 -47 24 -56 25 -9 0 -22 7 -29 15 -7 8 -24 15 -39 15 -14 0 -35 7 -45 15 -11 8 -36 15 -55 15 -20 0 -56 7 -80 16 -45 15 -208 17 -281 3z m200 -49 c0 -11 -7 -23 -15 -26 -21 -8 -19 -19 9 -49 16 -17 25 -41 28 -71 3 -44 2 -46 -49 -85 -29 -21 -56 -39 -61 -39 -15 0 -54 -48 -44 -54 5 -3 12 -18 15 -33 4 -25 12 -47 56 -155 12 -31 55 -39 65 -13 4 11 20 15 56 15 43 0 55 -4 80 -30 32 -32 64 -39 74 -15 3 8 10 15 15 15 5 0 16 -7 25 -15 8 -8 24 -15 35 -15 26 0 45 -34 32 -57 -7 -14 -2 -26 25 -55 34 -39 42 -62 24 -73 -16 -10 -12 -81 5 -95 21 -18 19 -39 -7 -61 -31 -25 -46 -24 -60 6 -14 31 -19 31 -48 0 -13 -14 -29 -24 -34 -22 -7 2 -12 39 -13 88 -1 46 -2 87 -2 91 -1 4 -19 20 -41 34 -29 20 -44 24 -52 16 -10 -10 -28 -1 -136 70 -46 30 -54 32 -96 19 -80 -24 -88 -25 -98 -7 -6 10 -22 16 -44 16 -26 0 -37 5 -44 23 -6 12 -16 31 -22 42 -7 10 -24 37 -38 60 -13 22 -30 49 -37 60 -7 11 -15 27 -19 35 -4 8 -13 22 -21 32 -8 9 -13 31 -11 50 3 32 4 33 46 31 l42 -2 0 97 c1 92 2 99 30 132 l29 35 126 1 c77 1 131 6 138 13 18 18 37 13 37 -9z m-179 -740 l79 0 20 -41 c20 -37 20 -42 6 -58 -9 -10 -16 -26 -16 -35 0 -10 -6 -30 -14 -44 -8 -15 -17 -35 -20 -44 -4 -15 -11 -14 -60 10 -52 25 -57 31 -72 80 -9 29 -22 56 -30 59 -8 3 -14 19 -14 37 0 37 8 49 28 41 7 -3 49 -5 93 -5z m837 -130 c26 -16 32 -26 32 -54 0 -18 7 -39 15 -46 8 -7 15 -23 15 -37 0 -13 7 -37 15 -54 9 -16 13 -34 10 -39 -10 -17 -44 -11 -65 10 -41 41 -57 11 -17 -32 12 -13 31 -40 41 -60 l19 -35 -37 -38 c-22 -21 -43 -34 -51 -31 -23 8 -56 69 -45 80 6 6 10 18 10 27 0 14 -8 17 -42 16 l-41 -2 -19 60 c-15 49 -17 66 -7 93 9 27 8 37 -3 50 -21 25 -39 72 -33 83 4 5 27 9 53 9 26 0 54 5 62 10 23 15 52 12 88 -10z m-1048 -132 c5 -13 14 -42 20 -65 6 -24 15 -43 20 -43 24 0 4 -30 -67 -102 -51 -52 -85 -78 -100 -78 -17 0 -23 -6 -23 -23 0 -17 -21 -38 -82 -84 -78 -58 -83 -60 -105 -46 -21 14 -33 63 -15 63 4 0 20 12 36 27 16 15 72 63 125 107 136 114 134 112 128 137 -8 29 10 111 26 121 19 12 27 9 37 -14z m385 -4 c25 -16 121 -16 156 0 10 4 25 0 39 -12 l24 -19 -23 -19 c-13 -10 -31 -26 -40 -34 -72 -66 -84 -74 -123 -79 -34 -5 -45 -12 -56 -33 -10 -21 -20 -28 -42 -28 -16 0 -31 3 -33 8 -5 7 11 198 18 220 6 17 51 15 80 -4z m319 -145 c14 -11 26 -26 26 -32 0 -7 -17 -30 -37 -52 -34 -37 -37 -45 -41 -116 -4 -72 -3 -77 17 -84 14 -4 21 -13 19 -23 -5 -21 -54 -19 -107 4 -20 9 -51 22 -68 30 -29 12 -33 18 -33 53 0 34 4 42 28 53 21 10 28 22 32 53 6 42 35 95 52 95 5 0 21 9 35 20 32 25 44 25 77 -1z m147 -46 c16 -76 16 -72 -14 -119 -18 -29 -27 -59 -29 -95 -4 -64 -27 -74 -44 -19 -9 27 -8 43 2 74 8 21 14 54 14 74 0 48 31 142 46 142 7 0 18 -25 25 -57z m315 -98 c4 -8 1 -22 -6 -30 -13 -16 -2 -39 28 -58 15 -10 16 -63 1 -72 -5 -4 -14 -17 -20 -28 -5 -12 -13 -30 -19 -39 -5 -10 -15 -26 -20 -35 -6 -10 -15 -29 -20 -42 -6 -13 -44 -55 -86 -95 -42 -39 -105 -99 -139 -133 -35 -33 -66 -58 -69 -55 -3 3 -6 27 -6 53 0 32 5 49 15 53 18 7 20 37 3 54 -18 18 -123 15 -138 -3 -7 -8 -17 -15 -23 -15 -6 0 -19 -7 -29 -17 -17 -15 -19 -15 -36 0 -22 20 -62 23 -62 5 0 -7 -15 -34 -32 -60 -31 -45 -36 -48 -75 -48 -46 0 -57 16 -28 40 8 7 15 19 15 27 0 7 -7 16 -15 19 -45 18 13 54 152 95 23 7 34 17 38 34 3 14 7 36 10 49 4 22 11 25 67 28 66 5 125 -13 135 -39 8 -22 31 -15 55 17 17 24 29 30 60 30 l38 0 0 60 c0 56 2 60 23 60 12 0 28 -9 35 -20 16 -26 24 -25 61 6 30 25 30 26 15 56 -13 26 -14 32 -1 46 8 10 17 29 21 45 7 30 42 38 52 12z"/> <path d="M2757 6823 c-4 -3 -7 -314 -7 -690 0 -539 -3 -683 -12 -684 -28 -3 -42 4 -67 30 -35 37 -145 120 -190 143 -20 10 -43 22 -51 27 -8 5 -33 17 -55 26 -22 10 -52 24 -67 32 -14 7 -39 13 -55 13 -16 0 -35 6 -41 13 -10 9 -75 13 -237 15 -188 3 -228 1 -254 -12 -16 -9 -45 -16 -64 -16 -18 0 -42 -7 -53 -15 -10 -8 -28 -15 -40 -15 -11 0 -29 -7 -40 -15 -10 -8 -26 -15 -35 -15 -9 0 -22 -7 -29 -15 -7 -8 -18 -15 -26 -15 -27 0 -168 -104 -244 -180 -61 -60 -157 -185 -177 -230 -4 -8 -9 -17 -12 -20 -3 -3 -23 -41 -44 -85 -21 -44 -45 -92 -53 -107 -8 -14 -14 -33 -14 -41 0 -8 -7 -28 -15 -43 -8 -16 -15 -36 -15 -45 0 -9 -7 -30 -15 -45 -8 -16 -15 -41 -15 -55 0 -15 -7 -40 -15 -55 -8 -16 -15 -48 -15 -72 0 -24 -5 -53 -11 -65 -7 -11 -15 -60 -20 -107 -4 -47 -12 -107 -18 -135 -13 -65 -13 -547 0 -605 5 -25 14 -86 18 -136 5 -50 13 -100 20 -112 6 -11 11 -38 11 -59 1 -21 7 -49 15 -63 8 -14 14 -38 15 -55 0 -16 7 -43 15 -59 8 -15 15 -38 15 -50 0 -12 6 -30 14 -41 7 -11 17 -35 21 -52 3 -18 11 -33 16 -33 5 0 9 -11 9 -24 0 -13 7 -29 15 -36 8 -7 15 -20 15 -30 0 -10 7 -23 15 -30 8 -7 15 -18 15 -26 0 -7 28 -55 62 -106 77 -118 276 -318 315 -318 7 0 13 -4 13 -9 0 -12 137 -81 161 -81 10 0 19 -4 19 -10 0 -5 17 -12 38 -15 20 -3 46 -11 57 -17 72 -40 519 -41 597 -2 15 8 35 14 44 14 15 0 96 38 191 89 68 36 210 200 258 296 11 22 27 45 35 52 38 31 40 20 40 -196 0 -119 4 -212 9 -216 10 -6 1112 -8 1118 -2 2 2 3 547 3 1210 0 766 3 1215 10 1231 l10 26 400 0 400 0 15 -24 c15 -22 16 -85 10 -628 -4 -332 -7 -675 -8 -763 -2 -177 16 -402 32 -418 6 -6 11 -23 11 -39 0 -15 7 -44 16 -65 38 -87 59 -129 71 -141 7 -7 13 -18 13 -23 0 -24 228 -239 254 -239 4 0 24 -11 45 -25 22 -13 52 -27 68 -31 15 -4 37 -13 48 -20 11 -8 29 -14 41 -14 12 0 38 -7 57 -15 20 -8 56 -15 79 -15 24 0 77 -7 118 -16 65 -14 134 -15 509 -11 238 3 437 9 442 14 5 5 8 207 7 459 l-3 449 -195 12 c-107 6 -213 15 -235 19 -51 9 -116 61 -146 116 l-23 43 -4 664 c-2 365 -1 675 2 688 l6 23 416 0 c267 0 422 -4 435 -10 19 -10 19 -35 19 -1230 0 -742 4 -1221 9 -1225 5 -3 272 -5 592 -5 496 0 584 2 591 14 4 8 7 745 6 1638 l-3 1623 -1034 3 c-740 1 -1038 5 -1047 13 -11 9 -14 118 -16 568 l-3 556 -592 3 c-326 1 -593 -1 -594 -5 -3 -24 -7 -420 -8 -750 l-1 -383 -404 0 -403 0 -7 32 c-4 18 -6 269 -6 558 0 289 0 531 0 538 0 9 -124 12 -588 12 -324 0 -592 -3 -595 -7z m-243 -1868 c11 -8 26 -15 33 -15 31 0 128 -98 152 -153 10 -23 26 -85 35 -137 15 -83 17 -157 14 -580 -3 -493 -8 -563 -44 -632 -8 -14 -14 -33 -14 -42 0 -9 -4 -16 -9 -16 -5 0 -13 -12 -19 -27 -13 -36 -89 -113 -133 -135 -60 -30 -135 -40 -203 -27 -33 6 -68 15 -76 20 -8 5 -24 13 -36 18 -43 19 -154 157 -154 192 0 6 -6 25 -14 42 -24 57 -38 120 -46 212 -5 50 -13 122 -19 160 -15 96 -13 211 4 330 8 55 15 137 15 183 0 46 5 92 10 103 6 10 13 49 16 87 3 37 12 81 20 99 8 17 14 43 14 57 0 15 4 34 9 44 5 9 19 37 31 62 25 52 92 119 147 148 49 25 236 30 267 7z"/> <path d="M804 2016 c-3 -7 -4 -166 -2 -352 l3 -339 3622 -3 3622 -2 3 347 c2 192 2 351 0 356 -2 4 -1632 7 -3623 7 -3051 0 -3620 -2 -3625 -14z"/> <path d="M7840 921 c-59 -32 -80 -70 -80 -147 0 -51 5 -72 20 -91 22 -28 81 -63 106 -63 9 0 32 -9 50 -21 29 -17 34 -26 34 -58 0 -34 -4 -40 -38 -55 -37 -17 -39 -17 -75 4 -22 13 -37 30 -37 41 0 11 -7 19 -16 19 -13 0 -50 -15 -63 -26 -9 -7 34 -81 57 -99 21 -15 42 -19 100 -19 66 1 75 3 102 29 17 16 30 34 30 41 0 6 7 25 15 40 20 38 19 63 -3 113 -19 42 -56 81 -77 81 -7 0 -26 7 -41 15 -16 8 -37 15 -46 15 -24 0 -50 42 -42 66 22 62 71 70 121 22 27 -26 37 -30 51 -22 44 28 8 95 -63 120 -51 18 -63 17 -105 -5z"/> <path d="M4169 914 c-5 -7 -8 -115 -7 -255 l3 -244 40 0 40 0 3 93 3 92 42 0 c64 0 118 23 144 61 19 28 23 46 23 109 -1 68 -3 78 -30 110 l-29 35 -111 5 c-76 3 -115 1 -121 -6z m169 -70 c24 -7 52 -50 52 -83 0 -11 -12 -33 -26 -50 -22 -26 -33 -31 -70 -31 l-44 0 0 78 c0 43 3 82 7 85 8 9 50 9 81 1z"/> <path d="M6512 918 c-8 -8 -12 -55 -12 -144 0 -73 -4 -135 -9 -139 -11 -6 -51 46 -51 67 0 8 -7 23 -15 34 -8 10 -15 26 -15 35 0 9 -6 22 -14 28 -7 6 -16 25 -20 41 -11 56 -34 80 -77 80 l-39 0 2 -252 3 -253 23 -3 c13 -2 22 2 22 10 1 7 1 74 0 149 0 74 2 143 6 152 8 23 34 22 34 -1 0 -10 7 -27 15 -38 8 -10 15 -26 15 -34 0 -8 9 -33 20 -55 11 -22 19 -46 20 -52 0 -7 5 -13 10 -13 6 0 10 -7 10 -16 0 -9 6 -28 14 -42 8 -15 17 -35 20 -45 5 -14 14 -18 42 -15 l37 3 -1 248 c-1 273 -4 291 -40 255z"/> <path d="M804 907 c-2 -7 -3 -120 -2 -252 l3 -240 40 0 40 0 -2 60 c-2 33 0 75 3 92 4 30 8 33 43 33 63 0 123 27 149 66 33 52 32 157 -3 204 -14 19 -31 37 -37 42 -22 14 -228 10 -234 -5z m179 -68 c30 -16 37 -28 37 -71 0 -54 -35 -88 -89 -88 -45 0 -42 -6 -46 90 -1 25 2 53 7 63 10 20 58 23 91 6z"/> <path d="M1560 911 c0 -6 0 -117 0 -246 0 -129 0 -240 0 -246 0 -6 16 -9 38 -7 l37 3 3 103 3 102 74 0 74 0 3 -102 3 -103 30 0 30 0 0 250 0 250 -30 0 -30 0 -3 -89 c-2 -50 -8 -96 -14 -103 -8 -10 -30 -13 -72 -11 l-61 3 -5 100 -5 100 -37 3 c-22 2 -38 -1 -38 -7z"/> <path d="M2355 908 c-3 -7 -4 -121 -3 -253 l3 -240 30 0 30 0 0 250 0 250 -28 3 c-16 2 -29 -2 -32 -10z"/> <path d="M2910 913 c0 -4 -1 -118 -1 -253 l-1 -245 118 0 118 0 7 33 c9 42 -9 52 -95 52 l-66 0 -2 208 -3 207 -37 3 c-21 2 -38 0 -38 -5z"/> <path d="M3598 675 c-2 -136 0 -251 3 -257 3 -5 21 -8 40 -6 l34 3 0 250 0 250 -37 3 -37 3 -3 -246z"/> <path d="M4934 907 c-2 -7 -3 -120 -2 -252 l3 -240 30 0 30 0 5 90 5 90 35 3 c60 4 124 24 144 45 52 54 51 192 -2 250 -25 26 -29 27 -134 27 -79 0 -110 -4 -114 -13z m169 -69 c55 -29 63 -89 18 -132 -24 -23 -36 -27 -72 -24 l-44 3 -3 68 c-2 42 2 74 9 83 14 17 62 18 92 2z"/> <path d="M5694 907 c-2 -7 -3 -120 -2 -252 l3 -240 24 -3 c13 -2 27 0 33 6 6 6 12 309 8 492 0 15 -60 12 -66 -3z"/> <path d="M7045 908 c-3 -8 -4 -121 -3 -253 l3 -240 130 0 130 0 0 40 0 40 -95 5 -95 5 -3 57 -3 57 36 7 c20 3 54 4 75 1 51 -7 59 5 51 71 -1 8 -23 12 -75 12 -83 0 -86 2 -86 76 0 51 3 53 120 56 l75 3 0 35 0 35 -128 3 c-97 2 -129 0 -132 -10z"/> </g> </svg> 