<?xml version="1.0" standalone="no"?>
<!DOCTYPE svg PUBLIC "-//W3C//DTD SVG 20010904//EN"
 "http://www.w3.org/TR/2001/REC-SVG-20010904/DTD/svg10.dtd">
<svg version="1.0" xmlns="http://www.w3.org/2000/svg"
 width="725.000000pt" height="344.000000pt" viewBox="0 0 725.000000 344.000000"
 preserveAspectRatio="xMidYMid meet">
<metadata>
Created by potrace 1.16, written by Peter Selinger 2001-2019
</metadata>
<g transform="translate(0.000000,344.000000) scale(0.100000,-0.100000)"
fill="#000000" stroke="none">
<path d="M3040 3193 c-14 -3 -27 -8 -30 -12 -3 -3 -32 -19 -65 -35 -83 -41
-151 -110 -201 -207 -43 -84 -57 -244 -30 -346 16 -59 67 -155 105 -196 76
-82 219 -147 326 -147 52 0 164 28 206 51 13 7 27 12 31 11 4 -1 12 7 18 18 6
11 15 20 19 20 12 0 81 67 81 79 0 5 6 16 13 23 48 51 87 185 82 283 -7 161
-37 230 -145 342 -87 91 -268 142 -410 116z m133 -42 c-3 -10 0 -22 6 -25 22
-14 11 -51 -20 -69 -33 -19 -35 -34 -10 -100 9 -24 13 -26 31 -15 16 10 25 9
50 -5 16 -10 34 -15 40 -12 11 7 54 -14 46 -22 -3 -4 1 -14 10 -24 10 -11 14
-27 11 -41 -4 -12 -1 -28 4 -35 17 -19 1 -32 -36 -31 -32 1 -35 4 -35 33 0 31
-24 65 -36 52 -3 -3 -24 7 -47 22 -30 21 -47 27 -66 22 -39 -11 -78 15 -111
72 -35 61 -37 77 -10 84 15 4 20 14 20 42 0 50 14 61 76 61 29 0 56 5 59 10
10 16 24 2 18 -19z m304 -381 c6 -14 15 -38 19 -54 6 -26 5 -29 -14 -24 -21 6
-21 5 -6 -23 13 -27 13 -31 -1 -45 -20 -20 -45 -11 -45 16 0 11 -7 20 -15 20
-19 0 -38 46 -30 70 3 10 1 21 -5 25 -18 11 -11 33 13 38 46 9 72 2 84 -23z
m33 -174 c0 -14 4 -28 10 -31 17 -10 -29 -86 -88 -147 -65 -67 -85 -73 -80
-25 3 27 0 32 -17 29 -11 -2 -36 -4 -54 -6 -23 -2 -42 -13 -56 -30 -23 -29
-61 -37 -51 -10 3 9 6 21 6 28 0 7 20 22 45 34 25 12 45 29 45 37 0 18 69 22
86 5 8 -8 15 -6 24 5 7 8 19 15 26 15 8 0 14 10 14 25 0 22 3 25 25 19 26 -6
28 -4 39 49 8 34 26 36 26 3z"/>
<path d="M1143 2622 l-43 -3 0 -285 c0 -156 -4 -284 -9 -284 -4 0 -24 11 -43
24 -119 81 -121 81 -273 81 -134 0 -142 -1 -190 -28 -98 -53 -113 -64 -146
-97 -70 -69 -150 -225 -165 -320 -3 -19 -10 -53 -15 -75 -14 -66 -11 -405 5
-458 7 -25 12 -48 10 -50 -5 -4 39 -136 56 -167 20 -37 96 -133 132 -166 105
-97 294 -141 431 -99 26 8 47 12 47 10 0 -3 9 4 21 16 11 11 25 19 31 17 14
-5 103 91 114 122 7 23 8 22 15 -15 4 -22 8 -61 8 -87 l1 -48 250 0 250 0 0
525 0 525 174 0 174 0 -1 -367 c-2 -350 -1 -371 19 -429 37 -107 124 -192 234
-230 45 -15 97 -19 300 -24 135 -3 245 -5 245 -5 0 0 -1 93 -3 206 l-3 207
-101 7 c-94 7 -104 10 -130 35 l-28 28 0 286 0 286 178 0 177 0 2 -523 2 -522
266 -3 265 -2 0 715 0 715 -445 0 -445 0 -2 240 -3 241 -265 1 -265 2 -3 -242
-2 -242 -168 2 -167 3 -2 230 c-1 127 -3 235 -3 240 0 9 -380 15 -487 7z
m-113 -837 c15 -8 38 -27 49 -41 20 -26 21 -38 21 -300 0 -225 -3 -275 -15
-287 -8 -8 -12 -17 -9 -19 7 -8 -58 -68 -68 -62 -4 3 -8 0 -8 -5 0 -18 -62
-13 -100 8 -76 40 -104 125 -103 311 1 129 23 302 44 342 23 44 61 67 112 68
26 0 61 -7 77 -15z"/>
<path d="M6414 2439 c-38 -50 -80 -106 -94 -125 -14 -18 -30 -34 -37 -34 -6 0
-16 -13 -22 -30 -5 -16 -15 -30 -20 -30 -6 0 -17 -13 -25 -29 -9 -16 -44 -51
-78 -79 -93 -75 -122 -101 -191 -168 -61 -60 -198 -164 -216 -164 -5 0 -14 -7
-22 -16 -7 -9 -42 -31 -78 -49 -36 -18 -75 -41 -86 -52 -11 -10 -29 -18 -40
-18 -11 0 -19 -5 -18 -11 1 -7 -6 -10 -20 -7 -18 4 -19 3 -7 -6 10 -7 11 -11
3 -11 -9 0 -11 -10 -6 -32 4 -22 3 -29 -5 -24 -7 4 -12 1 -12 -9 0 -9 5 -13
10 -10 6 3 10 1 10 -4 0 -12 -27 -10 -47 2 -15 10 -56 -10 -48 -24 4 -5 1 -9
-5 -9 -7 0 -9 7 -6 16 4 12 1 14 -14 9 -14 -4 -20 -2 -18 7 2 7 -3 12 -9 11
-7 -2 -13 2 -13 7 0 6 -6 10 -12 9 -31 -4 -49 3 -99 38 -30 20 -56 39 -59 43
-3 3 -22 16 -42 29 -21 12 -38 26 -38 31 0 5 -8 11 -19 15 -24 7 -213 194
-206 205 2 4 -5 16 -17 26 -12 11 -18 13 -13 5 5 -10 4 -12 -3 -7 -7 4 -12 14
-12 22 0 8 -6 14 -13 14 -14 0 -111 105 -138 150 -10 16 -16 38 -14 48 2 14
-1 19 -13 16 -16 -4 -60 50 -104 128 -9 16 -23 37 -31 46 -8 9 -25 37 -37 62
-12 25 -29 53 -37 62 -15 16 -17 16 -34 -6 -11 -13 -19 -29 -19 -35 0 -7 -11
-34 -25 -61 -54 -106 -115 -346 -115 -452 0 -42 6 -55 63 -128 104 -137 111
-146 135 -171 13 -13 58 -60 100 -104 l77 -80 -43 -3 c-41 -3 -46 0 -85 44
-23 26 -49 58 -58 71 -8 13 -18 20 -22 17 -3 -3 -12 7 -20 23 -8 15 -27 39
-41 52 -14 14 -26 29 -26 34 0 5 -13 25 -30 44 -16 18 -30 41 -30 49 0 8 -5
12 -11 8 -15 -9 -2 -130 23 -213 11 -36 28 -94 39 -129 64 -219 222 -433 444
-601 87 -66 310 -175 391 -190 27 -6 81 -17 119 -26 202 -48 503 -12 722 87
35 15 69 28 76 28 8 0 22 9 32 20 10 11 24 20 30 20 7 0 41 22 75 50 34 27 66
50 71 50 15 0 226 215 233 238 4 12 12 22 17 22 5 0 9 5 9 11 0 6 6 16 13 24
31 33 46 56 82 128 22 42 35 80 31 84 -5 4 -11 2 -13 -4 -3 -7 -9 -13 -15 -13
-5 0 -41 -34 -80 -75 -39 -41 -77 -75 -84 -75 -7 0 -18 -8 -23 -18 -7 -14 -18
-18 -40 -14 -34 5 -41 19 -13 29 26 10 307 294 325 330 22 41 41 285 30 375
l-8 67 -43 -52 c-101 -123 -336 -366 -407 -422 -16 -12 -41 -34 -55 -46 -28
-28 -59 -50 -155 -116 -83 -56 -140 -84 -160 -78 -8 3 -23 7 -32 10 -12 4 -4
14 35 40 28 19 55 35 60 35 5 0 20 8 33 19 13 10 43 29 65 42 23 13 58 38 78
54 97 79 118 95 125 95 10 0 233 220 305 300 32 36 72 85 89 110 17 25 37 51
45 59 15 15 11 46 -19 133 -11 31 -22 67 -24 80 -5 27 -90 201 -117 241 -11
15 -23 27 -27 27 -4 0 -39 -41 -77 -91z"/>
<path d="M1763 562 l-1493 -2 0 -155 c0 -85 1 -155 3 -156 19 -4 3092 -10
3111 -5 l26 6 0 141 c0 78 -5 149 -10 160 -9 16 -20 19 -78 16 -37 -1 -739 -3
-1559 -5z"/>
<path d="M4386 458 c-73 -37 -95 -138 -41 -188 20 -19 31 -21 87 -16 80 6 88
8 83 16 -2 3 1 25 7 48 8 32 7 46 -2 57 -9 10 -9 15 -1 15 6 0 11 6 11 14 0 8
6 16 13 19 24 9 -19 38 -70 46 -41 6 -58 4 -87 -11z"/>
<path d="M6892 468 c-61 -11 -85 -38 -80 -89 3 -29 8 -34 48 -47 25 -9 39 -17
32 -20 -7 -2 -26 1 -42 7 -18 6 -30 6 -30 0 0 -5 -7 -9 -16 -9 -11 0 -14 -5
-9 -17 5 -14 3 -15 -5 -7 -7 7 -13 24 -13 38 -1 14 -5 26 -9 26 -5 0 -8 10 -8
23 0 12 -5 39 -11 60 -9 34 -13 37 -47 37 -32 -1 -42 -7 -69 -44 -18 -24 -33
-47 -33 -51 0 -4 -11 -23 -25 -41 -14 -18 -30 -43 -35 -56 -8 -18 -9 -13 -4
22 3 25 9 50 13 55 3 6 6 33 6 60 l0 50 -37 3 c-21 2 -38 0 -39 -5 -7 -70 -10
-72 -44 -28 -22 30 -32 36 -58 33 -26 -3 -33 -8 -40 -38 -5 -19 -10 -51 -12
-70 -1 -19 -3 -37 -4 -40 -2 -3 -5 -20 -7 -37 l-5 -33 45 0 c26 0 45 3 45 7
-1 5 -1 21 0 38 l1 30 33 -37 c33 -38 50 -43 145 -39 28 1 42 5 42 15 0 16 21
26 56 26 17 0 24 -6 24 -20 0 -22 8 -23 155 -20 90 1 102 5 120 40 27 52 12
89 -40 104 -11 3 -5 4 13 2 28 -2 35 1 43 21 5 13 9 28 9 32 0 7 -47 33 -53
30 -1 -1 -26 -6 -55 -11z"/>
<path d="M3865 460 c-4 -6 -11 -39 -15 -73 -4 -34 -11 -79 -15 -99 l-7 -38 81
0 c93 0 137 17 147 54 3 13 1 33 -5 44 -13 25 -14 35 -2 28 14 -9 22 41 11 66
-10 21 -18 23 -99 26 -60 2 -91 0 -96 -8z"/>
<path d="M4164 462 c-6 -4 -15 -18 -19 -31 -4 -14 -22 -45 -39 -70 -18 -25
-40 -61 -48 -78 l-16 -33 43 0 c34 0 44 4 48 20 7 29 72 29 80 0 3 -13 14 -20
30 -20 14 0 32 -3 40 -6 13 -5 14 1 7 33 -5 21 -11 56 -14 77 -9 59 -18 90
-29 104 -10 13 -65 16 -83 4z"/>
<path d="M4609 447 c-48 -32 -71 -81 -59 -132 5 -22 17 -45 26 -52 43 -31 181
-1 198 42 3 9 6 43 6 75 0 49 -4 61 -22 74 -34 24 -108 20 -149 -7z"/>
<path d="M4829 468 c-1 -3 -5 -37 -15 -110 -3 -27 -9 -48 -13 -48 -4 0 -8 -13
-8 -30 0 -28 3 -30 38 -30 36 0 38 2 44 40 6 34 9 39 21 29 8 -6 14 -18 14
-26 0 -25 27 -43 64 -43 33 0 36 2 36 29 0 16 5 42 11 58 6 15 12 44 14 63 1
19 4 42 6 50 3 10 -5 16 -26 18 -40 3 -55 -8 -58 -46 -3 -40 -17 -36 -40 11
-15 32 -22 37 -52 37 -19 0 -35 -1 -36 -2z"/>
<path d="M5125 461 c-11 -5 -33 -23 -49 -40 -24 -25 -30 -40 -30 -82 -1 -65
24 -89 94 -89 47 0 110 16 110 28 0 4 4 24 9 45 6 27 5 41 -3 50 -15 15 -9 37
10 37 16 0 18 18 5 39 -11 17 -115 25 -146 12z"/>
<path d="M5397 463 c-3 -5 -8 -30 -12 -58 -5 -27 -9 -54 -11 -60 -1 -5 -5 -29
-9 -52 l-8 -43 42 0 c35 0 42 4 47 24 5 20 14 25 55 31 29 4 53 13 59 23 6 11
9 12 10 4 0 -7 5 -10 12 -6 8 5 9 -4 4 -34 l-6 -42 35 0 c19 0 38 0 42 0 5 0
9 17 11 37 1 21 7 53 14 72 6 19 12 52 14 73 l2 39 -44 -2 c-34 -2 -44 -7 -42
-18 3 -26 -13 -101 -22 -101 -5 0 -6 15 -3 34 4 28 1 39 -20 60 -23 23 -34 26
-96 26 -38 0 -72 -3 -74 -7z"/>
<path d="M5726 458 c-2 -7 -8 -29 -15 -49 -6 -19 -14 -63 -17 -97 l-7 -62 76
0 c41 0 81 -2 89 -5 9 -4 13 6 15 35 l1 40 -44 0 c-41 0 -44 2 -40 23 3 12 7
46 11 75 l6 52 -36 0 c-20 0 -37 -5 -39 -12z"/>
<path d="M5914 462 c-6 -4 -14 -32 -17 -62 -3 -30 -9 -76 -13 -101 l-6 -47 38
-4 c22 -3 40 -5 41 -4 2 2 15 70 18 101 2 17 4 30 5 30 1 0 3 21 4 48 1 46 1
47 -29 47 -16 0 -35 -4 -41 -8z"/>
<path d="M6016 459 c-3 -8 -12 -50 -21 -94 -8 -44 -17 -88 -20 -98 -3 -16 3
-18 43 -15 28 2 47 8 48 16 1 6 2 16 3 21 0 5 22 12 49 16 55 8 85 22 77 36
-4 5 -2 9 3 9 17 0 12 68 -7 92 -16 19 -30 23 -95 26 -58 3 -77 1 -80 -9z"/>
<path d="M6243 458 c-5 -7 -15 -44 -22 -83 -6 -38 -14 -82 -17 -97 -6 -27 -4
-28 30 -28 20 0 39 0 43 0 10 -1 40 148 38 185 -1 26 -6 30 -32 33 -16 2 -34
-3 -40 -10z"/>
</g>
</svg>
